<svg width="262" height="726" viewBox="0 0 262 726" fill="none" xmlns="http://www.w3.org/2000/svg">
<path d="M287.5 213L287.743 496.482L322.154 215.096L288.226 496.541L356.303 221.354L288.697 496.657L389.449 231.683L289.152 496.83L421.108 245.931L289.582 497.055L450.819 263.892L289.982 497.332L478.148 285.303L290.346 497.654L502.697 309.852L290.668 498.018L524.108 337.181L290.945 498.418L542.069 366.892L291.17 498.848L556.317 398.551L291.343 499.303L566.646 431.697L291.459 499.774L572.904 465.846L291.518 500.257L575 500.5L291.518 500.743L572.904 535.154L291.459 501.226L566.646 569.303L291.343 501.697L556.317 602.449L291.17 502.152L542.069 634.108L290.945 502.582L524.108 663.819L290.668 502.982L502.697 691.148L290.346 503.346L478.148 715.697L289.982 503.668L450.819 737.108L289.582 503.945L421.108 755.069L289.152 504.17L389.449 769.317L288.697 504.343L356.303 779.646L288.226 504.459L322.154 785.904L287.743 504.518L287.5 788L287.257 504.518L252.846 785.904L286.774 504.459L218.697 779.646L286.303 504.343L185.551 769.317L285.848 504.17L153.892 755.069L285.418 503.945L124.181 737.108L285.018 503.668L96.8522 715.697L284.654 503.346L72.3032 691.148L284.332 502.982L50.8921 663.819L284.055 502.582L32.9314 634.108L283.83 502.152L18.6828 602.449L283.657 501.697L8.35422 569.303L283.541 501.226L2.09619 535.154L283.482 500.743L0 500.5L283.482 500.257L2.09619 465.846L283.541 499.774L8.35422 431.697L283.657 499.303L18.6828 398.551L283.83 498.848L32.9314 366.892L284.055 498.418L50.8921 337.181L284.332 498.018L72.3032 309.852L284.654 497.654L96.8522 285.303L285.018 497.332L124.181 263.892L285.418 497.055L153.892 245.931L285.848 496.83L185.551 231.683L286.303 496.657L218.697 221.354L286.774 496.541L252.846 215.096L287.257 496.482L287.5 213Z" fill="#585858"/>
<path d="M236.751 539C177.518 539 129 491.739 129 434.025C129 376.311 177.518 330 236.751 330C295.983 330 344 376.786 344 434.5C344 492.214 295.983 539 236.751 539Z" fill="white"/>
<ellipse cx="224.189" cy="119.702" rx="108.5" ry="109.341" transform="rotate(90 224.189 119.702)" fill="#585858"/>
<rect x="436.556" y="126.475" width="203.948" height="205.392" transform="rotate(90 436.556 126.475)" fill="#585858"/>
<path d="M231.358 330.395C262 327 332.604 353.312 357.5 343C382.396 332.688 357.4 289.348 376.454 270.294C395.509 251.239 410.623 228.619 420.936 203.723C431.248 178.827 436.555 152.144 436.555 125.197L231.358 125.197L231.358 330.395Z" fill="black"/>
<path d="M231.235 227.685C244.73 227.685 258.093 225.027 270.561 219.863C283.029 214.698 294.358 207.129 303.901 197.586C313.443 188.043 321.013 176.715 326.177 164.247C331.342 151.778 334 138.415 334 124.92L231.235 124.92V227.685Z" fill="white"/>
<path d="M230.997 228.712L230.997 432.66H25.6056L25.6056 228.712L230.997 228.712Z" fill="#A097CC"/>
<path d="M231 228C204.053 228 177.173 232.993 152.277 243.295C127.382 253.598 104.761 268.698 85.7065 287.734C66.6521 306.77 51.5374 329.369 41.2253 354.241C30.9132 379.112 25.6056 405.77 25.6056 432.691L230.803 432.691L231 228Z" fill="#20DDED"/>
<path d="M231.08 330.079C217.585 330.079 204.222 332.735 191.753 337.894C179.285 343.054 167.957 350.616 158.414 360.15C148.871 369.683 141.302 381.001 136.137 393.457C130.973 405.913 127.76 419.264 127.76 432.746L231.08 432.746V330.079Z" fill="black"/>
<path d="M112.783 171.836C64.9368 171.836 26.1499 133.388 26.1499 85.9601C26.1499 38.532 64.9368 0.0839844 112.783 0.0839844C160.629 0.0839844 199.415 38.532 199.415 85.9601C199.415 133.388 160.629 171.836 112.783 171.836ZM112.783 3.7652C66.9877 3.7652 29.8636 40.5651 29.8636 85.9601C29.8636 131.355 66.9877 168.155 112.783 168.155C158.578 168.155 195.702 131.355 195.702 85.9601C195.702 40.5651 158.578 3.7652 112.783 3.7652Z" fill="#060606"/>
<path d="M112.783 163.513C69.5333 163.513 34.4727 128.792 34.4727 85.9601C34.4727 43.1285 69.5333 8.40674 112.783 8.40674C156.032 8.40674 191.093 43.1285 191.093 85.9601C191.093 128.792 156.032 163.513 112.783 163.513ZM112.783 11.7312C71.3872 11.7312 37.8296 44.9646 37.8296 85.9601C37.8296 126.956 71.3872 160.189 112.783 160.189C154.178 160.189 187.736 126.956 187.736 85.9601C187.736 44.9646 154.178 11.7312 112.783 11.7312Z" fill="#060606"/>
<path d="M111.648 155.569C72.7861 155.569 41.2824 124.404 41.2824 85.9602C41.2824 47.5163 72.7861 16.3513 111.648 16.3513C150.51 16.3513 182.013 47.5163 182.013 85.9602C182.013 124.404 150.51 155.569 111.648 155.569ZM111.648 19.3352C74.452 19.3352 44.2987 49.1642 44.2987 85.9602C44.2987 122.756 74.452 152.585 111.648 152.585C148.844 152.585 178.997 122.756 178.997 85.9602C178.997 49.1642 148.844 19.3352 111.648 19.3352Z" fill="#060606"/>
<path d="M112.972 148.003C78.6022 148.003 50.74 120.141 50.74 85.7709C50.74 51.4012 78.6022 23.5391 112.972 23.5391C147.342 23.5391 175.204 51.4012 175.204 85.7709C175.204 120.141 147.342 148.003 112.972 148.003ZM112.972 26.2067C80.0755 26.2067 53.4077 52.8745 53.4077 85.7709C53.4077 118.667 80.0755 145.335 112.972 145.335C145.868 145.335 172.536 118.667 172.536 85.7709C172.536 52.8745 145.868 26.2067 112.972 26.2067Z" fill="#060606"/>
<path d="M112.972 138.923C83.6166 138.923 59.8194 115.126 59.8194 85.7711C59.8194 56.4158 83.6166 32.6187 112.972 32.6187C142.327 32.6187 166.124 56.4158 166.124 85.7711C166.124 115.126 142.327 138.923 112.972 138.923ZM112.972 34.8971C84.8749 34.8971 62.0979 57.6742 62.0979 85.7711C62.0979 113.868 84.8749 136.645 112.972 136.645C141.069 136.645 163.846 113.868 163.846 85.7711C163.846 57.6742 141.069 34.8971 112.972 34.8971Z" fill="#060606"/>
<path d="M112.972 130.222C88.4221 130.222 68.5206 110.321 68.5206 85.7709C68.5206 61.2211 88.4221 41.3196 112.972 41.3196C137.522 41.3196 157.423 61.2211 157.423 85.7709C157.423 110.321 137.522 130.222 112.972 130.222ZM112.972 43.2251C89.4745 43.2251 70.4261 62.2735 70.4261 85.7709C70.4261 109.268 89.4745 128.317 112.972 128.317C136.469 128.317 155.518 109.268 155.518 85.7709C155.518 62.2735 136.469 43.2251 112.972 43.2251Z" fill="#060606"/>
<path d="M112.972 124.169C91.765 124.169 74.5735 106.978 74.5735 85.7709C74.5735 64.5641 91.765 47.3726 112.972 47.3726C134.179 47.3726 151.37 64.5641 151.37 85.7709C151.37 106.978 134.179 124.169 112.972 124.169ZM112.972 49.0186C92.6741 49.0186 76.2195 65.4732 76.2195 85.7709C76.2195 106.069 92.6741 122.523 112.972 122.523C133.27 122.523 149.724 106.069 149.724 85.7709C149.724 65.4732 133.27 49.0186 112.972 49.0186Z" fill="#060606"/>
<path d="M112.972 114.711C95.9437 114.711 82.1397 100.907 82.1397 83.8793C82.1397 66.8512 95.9437 53.0471 112.972 53.0471C130 53.0471 143.804 66.8512 143.804 83.8793C143.804 100.907 130 114.711 112.972 114.711ZM112.972 54.3688C96.6736 54.3688 83.4613 67.5811 83.4613 83.8793C83.4613 100.178 96.6736 113.39 112.972 113.39C129.27 113.39 142.482 100.178 142.482 83.8793C142.482 67.5811 129.27 54.3688 112.972 54.3688Z" fill="#060606"/>
<path d="M111.837 107.524C98.7784 107.524 88.1925 96.9378 88.1925 83.8794C88.1925 70.821 98.7784 60.2351 111.837 60.2351C124.895 60.2351 135.481 70.821 135.481 83.8794C135.481 96.9378 124.895 107.524 111.837 107.524ZM111.837 61.2487C99.3382 61.2487 89.2061 71.3808 89.2061 83.8794C89.2061 96.378 99.3382 106.51 111.837 106.51C124.335 106.51 134.468 96.378 134.468 83.8794C134.468 71.3808 124.335 61.2487 111.837 61.2487Z" fill="#060606"/>
<path d="M111.648 104.119C100.574 104.119 91.5974 95.142 91.5974 84.0684C91.5974 72.9949 100.574 64.0181 111.648 64.0181C122.721 64.0181 131.698 72.9949 131.698 84.0684C131.698 95.142 122.721 104.119 111.648 104.119ZM111.648 64.8776C101.049 64.8776 92.4569 73.4696 92.4569 84.0684C92.4569 94.6673 101.049 103.259 111.648 103.259C122.247 103.259 130.839 94.6673 130.839 84.0684C130.839 73.4696 122.247 64.8776 111.648 64.8776Z" fill="#060606"/>
<path d="M111.837 98.066C104.002 98.066 97.6503 91.7145 97.6503 83.8795C97.6503 76.0444 104.002 69.6929 111.837 69.6929C119.672 69.6929 126.023 76.0444 126.023 83.8795C126.023 91.7145 119.672 98.066 111.837 98.066ZM111.837 70.301C104.338 70.301 98.2584 76.3803 98.2584 83.8795C98.2584 91.3786 104.338 97.4579 111.837 97.4579C119.336 97.4579 125.415 91.3786 125.415 83.8795C125.415 76.3803 119.336 70.301 111.837 70.301Z" fill="#060606"/>
<path d="M112.783 93.5263C107.977 93.5263 104.082 89.2919 104.082 84.0686C104.082 78.8452 107.977 74.6108 112.783 74.6108C117.588 74.6108 121.484 78.8452 121.484 84.0686C121.484 89.2919 117.588 93.5263 112.783 93.5263ZM112.783 75.0163C108.183 75.0163 104.455 79.0691 104.455 84.0686C104.455 89.068 108.183 93.1209 112.783 93.1209C117.382 93.1209 121.111 89.068 121.111 84.0686C121.111 79.0691 117.382 75.0163 112.783 75.0163Z" fill="#060606"/>
<path d="M112.783 89.3649C110.067 89.3649 107.865 86.9936 107.865 84.0685C107.865 81.1435 110.067 78.7722 112.783 78.7722C115.499 78.7722 117.701 81.1435 117.701 84.0685C117.701 86.9936 115.499 89.3649 112.783 89.3649ZM112.783 78.9993C110.183 78.9993 108.076 81.2689 108.076 84.0685C108.076 86.8682 110.183 89.1378 112.783 89.1378C115.382 89.1378 117.49 86.8682 117.49 84.0685C117.49 81.2689 115.382 78.9993 112.783 78.9993Z" fill="#060606"/>
</svg>
